# xmcd CD database file
#
# Track frame offsets:
#	150
#	14049
#	28415
#	36038
#	41888
#	48845
#	57276
#	69351
#	75351
#	84085
#	91029
#	101085
#	107808
#	122208
#	141495
#	152493
#	167447
#	172829
#	180742
#	188369
#	197069
#	209969
#	220526
#	235226
#	245726
#	257164
#	266158
#	274672
#	291660
#	308634
#	316867
#
# Disc length: 4337 seconds
#
# Revision: 1
# Processed by: cddbd v1.5.2PL0 Copyright (c) Steve Scherf et al.
# Submitted via: CDex 1.70beta2
#
DISCID=ba10ef1f
DTITLE=KONTAKTE Musikverlag - Kinder-Kirchen-Hits CD1 (Playback)
DYEAR=2008
DGENRE=Alternative
TTITLE0=Wir singen vor Freude (Playback)
TTITLE1=Lasst uns miteinander (Playback)
TTITLE2=Gib uns Ohren die hören (Playback)
TTITLE3=Kommt alle her (Playback)
TTITLE4=Sind zwei sind drei (Playback)
TTITLE5=Preisen lasst uns Gott den Herrn (Playback)
TTITLE6=Wir feiern ein Fest (Playback)
TTITLE7=In Gottes Namen (Playback)
TTITLE8=Die Kerze brennt (Playback)
TTITLE9=Halte zu mir guter Gott (Playback)
TTITLE10=Licht der Liebe (Playback)
TTITLE11=Du verwandelst meine Trauer (Playback)
TTITLE12=Guten Tag Schwester Sonne (Playback)
TTITLE13=Kyrie Kyrie (Playback)
TTITLE14=Einfach spitze (Playback)
TTITLE15=Mitten unter uns (Playback)
TTITLE16=Guter Gott wir danken dir (Playback)
TTITLE17=Guter Gott erbarme dich (Playback)
TTITLE18=Aus vollem Herzen (Playback)
TTITLE19=Hoffen wider aller Hoffnung (Playback)
TTITLE20=Was hast du denn für Talente (Playback)
TTITLE21=Wer Gottes Wort hört lebt danach (Playback)
TTITLE22=Wer ist denn dieser Jesus (Playback)
TTITLE23=Ich glaube an Gott (Playback)
TTITLE24=Weil Gott dich wollte (Playback)
TTITLE25=Gib uns helfende Hände (Playback)
TTITLE26=Wenn einer sagt ich mag dich du (Playback)
TTITLE27=Eine Handvoll Erde (Playback)
TTITLE28=Volltreffer (Playback)
TTITLE29=Du bist da wo Menschen leben (Playback)
TTITLE30=Heaven is a wonderful place (Playback)
EXTD=YEAR: 2008
EXTT0=
EXTT1=
EXTT2=
EXTT3=
EXTT4=
EXTT5=
EXTT6=
EXTT7=
EXTT8=
EXTT9=
EXTT10=
EXTT11=
EXTT12=
EXTT13=
EXTT14=
EXTT15=
EXTT16=
EXTT17=
EXTT18=
EXTT19=
EXTT20=
EXTT21=
EXTT22=
EXTT23=
EXTT24=
EXTT25=
EXTT26=
EXTT27=
EXTT28=
EXTT29=
EXTT30=
PLAYORDER=
